<svg version="1.1" id="Layer_1" xmlns="http://www.w3.org/2000/svg" xmlns:xlink="http://www.w3.org/1999/xlink" x="0px" y="0px"
	 width="100%" viewBox="0 0 672 640" enable-background="new 0 0 672 640" xml:space="preserve">
<path fill="#000000" opacity="1.000000" stroke="none" 
	d="
M74.466858,641.000000 
	C76.911812,628.335693 80.319611,615.809387 84.692764,603.566284 
	C97.419540,567.936279 118.640839,538.490112 149.047180,515.859863 
	C155.709915,510.901001 162.420609,505.896545 170.347809,502.934967 
	C172.245911,502.225861 174.186066,501.050751 174.094360,498.734772 
	C174.006912,496.526550 171.710312,496.220367 170.145706,495.398499 
	C128.697601,473.626038 98.185852,442.052582 82.430527,397.329254 
	C81.098961,393.549469 79.291672,391.778870 75.020874,390.723053 
	C56.172905,386.063507 43.338524,373.798676 34.936390,356.653046 
	C29.483917,345.526520 27.397425,333.532501 27.155422,321.291229 
	C26.833096,304.986847 25.712259,288.599182 28.762070,272.428772 
	C32.583328,252.168076 40.666775,234.620712 60.476795,224.916473 
	C64.889427,222.754883 69.566994,221.683167 74.312096,220.839371 
	C76.835686,220.390625 78.071320,219.110229 78.588028,216.703415 
	C84.536186,188.996964 96.877884,163.960236 110.813347,139.585419 
	C117.303574,128.233231 125.864487,118.418732 134.025452,108.319710 
	C136.928436,104.727341 137.188980,102.449974 134.055542,98.271339 
	C124.537994,85.579109 116.303925,72.044220 114.188095,55.770866 
	C113.057816,47.077572 117.675293,42.559608 126.202278,44.740891 
	C166.966827,55.168858 207.471039,52.113121 247.816971,42.504066 
	C288.185150,32.889713 328.971039,27.020638 370.561493,28.805376 
	C417.809723,30.832899 461.104340,45.049801 499.988129,72.161743 
	C510.990723,79.833336 519.886475,89.586761 527.055969,100.921211 
	C530.399475,106.207100 534.530029,110.746910 540.061340,113.799805 
	C548.136902,118.256958 554.222229,124.637825 559.321533,132.278732 
	C576.508728,158.032227 588.834167,185.900284 596.427795,215.890793 
	C597.049011,218.344238 597.604065,220.754623 600.949707,220.929810 
	C623.603760,222.115936 643.282471,247.146072 646.240112,270.931976 
	C648.962463,292.825287 649.942383,314.993408 646.000854,336.645477 
	C641.365906,362.107025 628.442505,382.494354 601.869019,390.284271 
	C595.829468,392.054718 593.424744,394.961823 591.477783,400.380463 
	C580.815857,430.054352 563.297363,454.912964 538.519897,474.615784 
	C528.309631,482.734924 517.557373,489.952911 506.094269,496.147156 
	C504.816559,496.837555 503.277039,497.283752 502.712677,499.008972 
	C503.376526,501.318420 505.576050,502.028503 507.335205,503.176849 
	C521.719055,512.566589 535.846313,522.270264 548.005859,534.558411 
	C573.143921,559.962158 589.714233,590.017639 597.317993,624.969482 
	C598.412537,630.000793 600.035950,634.937439 600.072083,640.576782 
	C594.977905,641.000000 589.955811,641.000000 584.578491,640.666870 
	C583.421082,626.006592 578.573608,612.681946 573.459839,599.549255 
	C561.253296,568.201294 540.279480,543.731079 512.966858,524.476868 
	C510.625244,522.826172 508.132477,521.241211 504.801758,520.770813 
	C504.979462,526.720581 506.281677,531.778748 509.144470,536.420593 
	C509.742981,537.391052 510.901093,538.536133 510.728638,539.381897 
	C509.022095,547.750366 512.926880,555.056702 515.192749,562.576599 
	C516.624817,567.329102 515.425354,569.842346 511.102722,571.540161 
	C504.139404,574.275269 497.189514,577.047729 490.281860,579.919617 
	C488.063721,580.841736 485.501526,581.518127 484.628540,584.438660 
	C485.161041,585.096558 485.565186,585.891724 486.209625,586.346680 
	C493.460388,591.465210 498.928650,598.530518 505.767273,604.125305 
	C511.430267,608.758301 511.557831,612.949768 507.078064,618.628174 
	C505.637177,620.454590 503.940277,622.102661 502.670135,624.035767 
	C499.091919,629.481445 493.949738,634.054443 493.000000,641.000000 
	C486.312347,641.000000 479.624725,641.000000 472.528442,640.649963 
	C477.327728,630.807312 484.477600,622.667725 490.675720,613.867004 
	C492.370300,611.460938 492.898346,609.944092 490.218262,608.239258 
	C479.071014,601.148560 469.799194,591.751099 459.636688,583.448181 
	C457.064941,581.347046 457.374603,579.822266 459.394592,577.804321 
	C462.499146,574.702942 466.086182,572.362000 470.099121,570.614502 
	C477.417603,567.427612 484.666290,564.073669 492.047760,561.041748 
	C494.946991,559.850830 495.822510,558.335266 494.927795,555.317688 
	C493.653351,551.019226 492.370880,546.673706 491.703705,542.255981 
	C490.639221,535.207275 486.834900,531.726074 479.963043,529.729004 
	C474.672974,528.191650 471.410889,529.350098 468.198853,533.132996 
	C466.770294,534.815430 465.760040,536.661926 464.890930,538.660583 
	C457.455597,555.759399 451.797821,573.518494 445.366760,590.990723 
	C439.332306,607.385437 433.907928,623.956970 430.000000,641.000000 
	C424.977905,641.000000 419.955811,641.000000 414.459839,640.613647 
	C416.922821,630.589417 419.859619,620.951477 422.846039,611.150757 
	C415.284729,608.495361 412.425232,601.788940 407.812836,596.876404 
	C401.614594,590.274658 395.941315,583.173218 389.089905,576.754578 
	C384.199677,587.701477 376.748352,595.874390 367.961914,602.901123 
	C365.991364,604.477051 365.464783,606.050354 365.906189,608.487915 
	C367.860992,619.283020 369.898224,630.069702 371.000000,641.000000 
	C365.977905,641.000000 360.955811,641.000000 355.332886,640.615601 
	C353.417755,631.200439 351.906647,622.192078 350.876221,613.128967 
	C350.395172,608.897522 349.104279,606.777588 344.414307,607.188293 
	C339.790680,607.593201 335.081787,607.608521 330.455597,607.234497 
	C325.950836,606.870300 324.579163,609.099609 324.256775,612.961365 
	C323.468689,622.401245 321.820282,631.714600 320.000000,641.000000 
	C315.310760,641.000000 310.621490,641.000000 305.365448,640.575195 
	C306.251556,629.985046 307.554199,619.794495 309.250244,609.669983 
	C309.750519,606.683655 309.360443,604.570068 307.044006,602.632629 
	C299.934021,596.685852 294.586670,589.335815 290.209808,581.217773 
	C289.453186,579.814331 288.858185,578.130554 286.322021,577.463379 
	C282.382721,581.927185 278.372375,586.734558 274.078369,591.273560 
	C268.158630,597.530884 263.149323,604.749146 256.149780,609.843262 
	C253.349503,611.881226 252.916016,613.598511 253.859283,616.423401 
	C256.592560,624.609009 259.289062,632.806946 262.000000,641.000000 
	C255.645599,641.000000 249.291214,641.000000 242.608398,640.617188 
	C243.573105,636.255005 242.879898,632.388489 241.843063,628.460266 
	C235.379547,603.972229 225.381836,580.674438 217.767487,556.592896 
	C214.671478,546.801331 209.784714,538.672424 203.033493,531.263123 
	C197.895355,525.624146 194.414871,525.274902 188.289871,529.427551 
	C185.789886,531.122437 184.827499,533.265259 183.987930,535.791443 
	C182.095840,541.484497 181.057251,547.378784 179.762131,553.217346 
	C178.230164,560.123657 178.151794,560.018799 184.655533,561.899963 
	C194.493988,564.745728 203.362015,569.799377 211.973480,575.084229 
	C219.042618,579.422546 218.964584,582.224243 212.533157,586.891724 
	C204.833664,592.479553 197.791199,598.812500 190.691879,605.092163 
	C182.987671,611.906860 183.182083,611.851685 188.572647,620.795349 
	C192.986984,628.119263 199.314575,633.920349 204.000000,641.000000 
	C195.312439,641.000000 186.624863,641.000000 177.356461,640.673218 
	C172.243042,633.168762 168.230911,625.804016 165.482422,617.660522 
	C163.858429,612.848816 164.522278,609.276306 167.719193,605.801941 
	C173.694229,599.308350 179.819183,593.007629 187.110077,587.895813 
	C191.799438,584.607910 191.534149,582.916870 186.578186,580.081299 
	C179.628098,576.104736 172.407623,572.693115 164.764664,570.299805 
	C160.283920,568.896729 159.089737,566.343872 160.599625,561.966431 
	C161.842194,558.364014 162.803925,554.641541 163.566971,550.906250 
	C163.974762,548.910034 164.930740,546.240784 162.544342,544.997681 
	C160.228134,543.791199 158.723602,546.128723 156.992523,547.346375 
	C154.479858,549.113892 152.591644,552.102783 147.790268,552.169678 
	C153.565201,546.600464 158.752075,542.029419 164.319458,537.900940 
	C170.130951,533.591492 170.560562,527.515381 170.698471,521.020203 
	C167.536163,520.823547 165.710449,522.446838 163.831131,523.669556 
	C147.618271,534.217651 133.741013,547.286865 122.353554,562.914856 
	C105.296516,586.323792 94.420708,612.334900 90.000000,641.000000 
	C84.977905,641.000000 79.955818,641.000000 74.466858,641.000000 
M117.465408,353.979980 
	C110.472794,344.156158 104.813881,333.642822 100.765282,322.256439 
	C97.105850,311.964630 94.884193,301.401215 94.930260,290.480194 
	C94.948219,286.222778 92.734833,284.748627 89.214287,284.589233 
	C84.946953,284.396057 86.306717,287.886383 86.268745,290.040863 
	C86.127846,298.037048 86.260971,306.037567 86.229172,314.036224 
	C86.131447,338.614227 88.418320,362.874817 95.302040,386.594666 
	C103.467537,414.731293 118.330330,438.662262 140.736832,457.497040 
	C167.009888,479.581970 197.288223,493.425873 231.036591,500.012573 
	C261.158752,505.891541 291.432007,510.367981 322.106171,511.672211 
	C358.883240,513.235901 395.282013,509.277222 431.515503,503.457611 
	C461.753143,498.601013 490.242462,489.271851 516.030151,472.063232 
	C549.552246,449.693298 571.676147,419.404419 581.636963,380.431122 
	C589.299805,350.449310 589.364075,319.760864 588.992004,289.084564 
	C588.962646,286.663910 588.658142,284.272339 585.258240,284.380676 
	C582.074768,284.482086 580.252502,285.851318 580.293701,289.247437 
	C580.428406,300.336609 578.626465,311.158478 575.287903,321.687775 
	C565.642212,352.108948 545.841431,374.001282 517.556152,387.980927 
	C496.279602,398.496613 473.475708,401.709229 449.921021,398.259033 
	C422.685120,394.269623 399.269318,382.652405 381.667816,361.254578 
	C364.663269,340.582489 355.233276,316.759766 355.689911,289.559998 
	C355.723816,287.540405 355.593231,285.696320 354.013153,284.041779 
	C345.436462,275.060913 329.670837,274.944580 321.054962,283.819550 
	C319.620880,285.296753 319.286163,286.885193 319.418671,288.808289 
	C320.837769,309.407654 315.772278,328.508453 305.137970,345.990112 
	C286.520996,376.594421 258.723053,393.946716 223.600952,398.294922 
	C180.515060,403.629059 144.473160,390.060974 117.465408,353.979980 
M278.902802,51.441757 
	C262.876526,54.489456 247.163116,58.922897 231.120972,61.955658 
	C203.781525,67.124176 176.389603,69.348518 148.687088,65.510612 
	C146.590332,65.220131 144.280548,64.631248 141.968948,66.008118 
	C144.148209,68.738159 146.929810,69.618034 149.614761,70.213036 
	C157.715271,72.008156 165.001617,74.791473 170.526123,81.605751 
	C173.750534,85.582954 174.370926,86.274139 170.111435,89.157127 
	C166.594864,91.537277 166.588623,93.855774 169.728943,96.196579 
	C174.206894,99.534447 177.549301,103.797585 180.801895,108.253746 
	C187.296539,117.151573 196.083237,122.117203 207.063995,123.766998 
	C217.370636,125.315514 227.619843,125.339638 237.920792,124.324188 
	C242.922684,123.831108 247.921478,123.379738 252.751846,125.142830 
	C256.547302,126.528175 260.459564,127.378036 264.436066,127.681702 
	C269.304016,128.053436 273.575470,129.851898 277.188263,132.869736 
	C289.210327,142.912033 303.591736,144.744339 318.187073,143.499588 
	C331.019531,142.405167 343.881653,142.369339 356.478485,143.468369 
	C378.194855,145.363037 398.914520,142.823669 419.224579,135.371536 
	C422.543518,134.153763 425.560120,132.574509 428.328033,130.314667 
	C432.500549,126.908104 437.111206,124.304382 442.721893,123.997330 
	C452.657166,123.453598 459.991302,118.553322 465.069397,110.187363 
	C467.384552,106.373253 469.137268,102.331009 472.646942,99.187752 
	C474.911530,97.159599 475.918671,94.133606 471.302734,92.404778 
	C467.389343,90.939079 464.670593,83.386871 465.965363,78.734604 
	C474.560974,79.777832 481.589874,86.318214 490.715363,86.779755 
	C490.483185,84.185944 488.934265,83.621437 487.780273,82.821754 
	C450.770691,57.175976 409.433990,45.178627 364.713593,44.419865 
	C336.197266,43.936031 307.805450,45.726128 278.902802,51.441757 
M282.365356,217.099655 
	C291.874573,224.160675 299.075500,233.299149 305.441650,243.121628 
	C307.629791,246.497772 309.293335,247.770935 313.708710,245.790924 
	C330.041077,238.466873 346.617981,238.285904 362.884949,246.311371 
	C365.745361,247.722595 367.498810,247.334457 369.075806,244.702698 
	C370.100739,242.992279 371.352234,241.419357 372.456451,239.754486 
	C386.142761,219.119202 405.009338,205.043167 428.322876,197.374481 
	C467.199982,184.586334 503.846497,189.835190 537.915588,212.628860 
	C538.934937,213.310822 539.720581,214.748566 541.394043,213.899506 
	C542.450928,211.721817 540.919189,210.106628 540.090576,208.384750 
	C525.653809,178.384842 505.024445,153.136230 480.693756,130.676498 
	C477.867401,128.067459 475.838684,127.755486 472.558105,129.819778 
	C446.512482,146.208893 417.707184,155.764053 387.760406,161.110123 
	C342.364319,169.214157 296.756317,170.428711 251.357315,160.153458 
	C232.007568,155.773987 212.773041,151.033127 195.057480,141.718811 
	C192.504211,140.376389 190.790451,141.031311 188.755920,142.563019 
	C164.492981,160.829453 145.615921,183.510513 132.552948,210.965530 
	C131.807266,212.532776 130.522034,214.138901 131.691177,215.929886 
	C181.949768,184.234360 231.964661,178.838806 282.365356,217.099655 
M384.571655,285.175385 
	C383.939117,292.657043 383.131287,300.271545 384.704437,307.594818 
	C390.856506,336.233765 407.103180,357.437256 434.284149,368.526459 
	C462.983490,380.235138 490.872589,376.585419 516.486694,359.071747 
	C533.421570,347.492584 545.164673,332.030701 549.454529,311.430847 
	C555.960876,280.187317 547.453125,254.478668 521.662598,235.144287 
	C508.247589,225.087524 492.803741,220.651443 476.245239,218.633652 
	C438.154480,213.991974 389.940826,239.452820 384.571655,285.175385 
M218.032425,218.404327 
	C201.293854,216.869690 185.415802,219.609711 169.768616,226.071259 
	C127.889397,243.365448 115.555305,288.075439 129.596954,322.274597 
	C143.540298,356.234314 170.984528,373.504333 207.319183,374.609802 
	C241.980331,375.664368 267.983917,359.380981 284.036285,328.964264 
	C297.610535,303.243225 294.697113,269.760559 272.922821,246.250076 
	C258.168640,230.319458 239.852737,222.058090 218.032425,218.404327 
M238.344513,518.309814 
	C232.235092,517.105835 226.125671,515.901794 219.312164,514.559021 
	C220.397400,518.177368 221.141174,521.048340 222.114380,523.839294 
	C229.066452,543.776245 236.058884,563.699158 243.058960,583.619324 
	C243.773911,585.653870 244.445419,587.735962 245.451920,589.628479 
	C247.083069,592.695557 249.397842,593.582336 252.303360,591.062317 
	C253.433701,590.081909 254.624832,589.155945 255.654770,588.077698 
	C274.148804,568.715393 292.624847,549.336060 311.087952,529.944275 
	C311.623383,529.381958 312.339935,528.760742 311.562439,527.347961 
	C287.548218,525.011963 263.230530,522.835388 238.344513,518.309814 
M381.479126,526.214905 
	C376.550110,526.338806 371.624207,526.485535 366.606201,527.930115 
	C367.750763,531.767761 370.421143,534.135376 372.707520,536.652039 
	C388.932190,554.510803 406.382690,571.227234 421.953857,589.705078 
	C426.425232,595.011230 428.254425,594.626099 430.693970,588.137634 
	C436.842590,571.783936 442.726624,555.330994 448.768066,538.936768 
	C451.619324,531.199463 455.007751,523.638000 456.942383,514.061646 
	C431.889465,520.934509 407.224121,524.042664 381.479126,526.214905 
M338.363190,528.187378 
	C335.636383,528.415100 332.667664,527.289734 330.364319,529.795959 
	C320.574768,540.447693 310.803070,551.112061 301.870880,562.512695 
	C300.625366,564.102417 300.389832,565.545227 300.872040,567.553528 
	C303.179169,577.162476 310.015472,583.552917 316.587982,590.135376 
	C318.219757,591.769714 320.469299,591.848206 322.667419,591.903809 
	C330.480621,592.101318 338.317474,592.802612 346.096985,592.393494 
	C351.372711,592.116028 357.282898,593.879150 361.866821,589.601257 
	C368.043976,583.836426 372.364166,576.746338 375.966370,569.187561 
	C376.947113,567.129578 377.289673,565.171753 375.316193,563.284851 
	C364.843475,553.271484 356.068237,541.710022 346.205017,531.134033 
	C344.152832,528.933533 342.038269,528.030579 338.363190,528.187378 
M69.700020,314.499207 
	C71.174210,291.329071 66.470566,268.430908 66.644905,245.317093 
	C66.654800,244.005707 66.811981,242.468674 65.409225,241.750961 
	C63.607365,240.829041 62.177605,242.078491 60.919651,243.088791 
	C50.889145,251.144470 45.541336,261.891754 44.450386,274.453918 
	C42.822838,293.194824 42.617210,312.046143 43.553478,330.807434 
	C44.456001,348.892609 53.531116,362.517883 69.598503,371.208679 
	C70.955338,371.942566 72.379440,373.252380 74.584747,371.694061 
	C71.499557,353.228943 70.208572,334.394501 69.700020,314.499207 
M630.896729,303.500000 
	C630.912720,299.001282 630.912109,294.502411 630.947937,290.003845 
	C631.031860,279.478729 630.805908,269.021973 626.697876,259.047089 
	C623.132080,250.389053 617.296448,244.012665 608.554077,239.574738 
	C602.861511,283.736847 608.167908,327.910370 600.445618,371.014862 
	C602.478394,372.069275 603.758484,371.756042 604.962524,371.098694 
	C616.885803,364.589172 625.582458,355.478180 628.768311,341.826080 
	C631.645508,329.496735 630.679138,316.969452 630.896729,303.500000 
M114.329910,165.737732 
	C105.067711,183.088013 96.120888,207.352356 97.041634,212.656052 
	C97.300217,212.477524 97.678947,212.357819 97.799454,212.111679 
	C99.771935,208.082748 101.862968,204.101624 103.604958,199.973724 
	C104.734650,197.296707 105.650162,195.883224 109.079651,197.200729 
	C114.661659,199.345230 117.960251,197.941452 121.606941,193.174240 
	C127.860466,184.999237 134.749115,177.328583 140.508163,168.753082 
	C146.473312,159.870682 155.113632,153.251953 161.426483,144.639725 
	C165.662399,138.860962 162.061768,124.460762 155.635345,121.337593 
	C155.336090,121.192154 155.024582,120.889069 154.743591,120.916222 
	C150.332382,121.342438 145.451874,119.209496 141.747665,123.514000 
	C139.803802,125.772858 137.296539,127.574638 135.508057,129.934708 
	C127.236618,140.849716 120.602432,152.759933 114.329910,165.737732 
M537.012878,128.480438 
	C529.433716,119.319748 520.925842,111.155357 511.024872,104.526085 
	C509.359253,103.410858 507.753296,101.472763 505.271729,103.346634 
	C501.295685,106.348999 501.505310,109.024429 506.550018,111.340500 
	C516.817383,116.054367 524.782715,123.781036 533.982544,130.900497 
	C528.682861,132.595139 526.400269,128.551804 523.212646,126.968803 
	C518.772522,124.763771 515.397888,125.173508 512.413879,129.155396 
	C509.888672,132.525024 511.260315,135.499893 513.844727,138.036346 
	C525.555542,149.530014 534.550842,163.090240 543.862305,176.476028 
	C549.169495,184.105484 556.005737,190.518585 566.087341,191.645218 
	C568.402222,191.903915 569.480347,193.351486 570.119568,195.475311 
	C570.840942,197.872284 571.603455,200.350220 575.120667,202.407669 
	C572.636169,195.673843 570.745361,190.029419 568.491516,184.533890 
	C560.391785,164.784378 552.024292,145.166275 537.012878,128.480438 
M577.258667,246.246765 
	C574.421265,246.173340 571.649231,246.597641 568.904785,247.291077 
	C566.644043,247.862259 565.549011,249.420135 565.506897,251.604523 
	C565.462036,253.926849 567.174561,254.464600 569.120605,254.884293 
	C573.251526,255.775177 577.327515,255.716446 581.436157,254.812897 
	C585.243286,253.975662 585.358521,251.742249 583.639771,248.949097 
	C582.406921,246.945557 580.393433,246.225433 577.258667,246.246765 
M101.746513,246.397980 
	C99.127502,246.745285 96.476334,246.940781 93.899399,247.486694 
	C91.737457,247.944672 90.548820,249.556274 90.501366,251.793518 
	C90.468536,253.341507 91.497757,254.346664 92.898346,254.518112 
	C97.659264,255.100906 102.459694,255.456482 107.200211,254.468719 
	C109.038124,254.085770 110.637398,252.961288 110.548111,250.748642 
	C110.458740,248.533829 109.217140,246.969955 107.040474,246.523224 
	C105.609833,246.229614 104.085785,246.391174 101.746513,246.397980 
z"/>
<path fill="#000000" opacity="1.000000" stroke="none" 
	d="
M518.468628,641.000000 
	C524.807739,633.167664 528.844055,624.269531 530.363159,613.837280 
	C531.390137,606.784607 533.526184,600.062866 531.277039,592.823669 
	C530.330383,589.776550 531.240784,586.373596 534.183960,584.375000 
	C537.215271,582.316650 540.093811,583.463806 542.993286,585.237305 
	C545.787842,586.946716 548.914001,588.099731 551.297607,590.240967 
	C553.171021,589.022705 551.621765,586.471313 553.864685,585.944519 
	C553.980225,585.960510 554.237061,585.923645 554.295532,586.014465 
	C563.514709,600.336853 572.176147,614.924133 576.242004,631.727478 
	C576.976990,634.765259 577.376648,637.962708 579.772949,640.736389 
	C559.645752,641.000000 539.291565,641.000000 518.468628,641.000000 
z"/>
<path fill="#000000" opacity="1.000000" stroke="none" 
	d="
M1.000004,360.468658 
	C2.962462,363.268372 4.877628,366.566315 6.899687,369.797363 
	C9.278213,373.598053 11.564017,376.727509 17.260338,374.615753 
	C20.155912,373.542297 23.691494,375.719849 26.000566,378.246826 
	C27.550392,379.942932 28.892239,381.928528 29.908510,383.990875 
	C31.723770,387.674591 34.406895,390.087738 38.408264,391.050476 
	C41.742168,391.852631 44.422791,393.808746 46.955547,396.007050 
	C47.850735,396.784027 49.092548,397.834564 48.495766,398.882935 
	C46.734474,401.977020 48.804661,404.234619 49.716785,406.795197 
	C51.182495,410.909698 50.029510,412.947784 45.518345,412.903961 
	C38.691135,412.837585 33.504654,415.925293 28.461458,420.012115 
	C23.917137,423.694611 18.980101,426.454132 12.640569,426.263855 
	C8.595627,426.142395 4.312781,426.792877 1.217906,430.730286 
	C1.000000,407.645782 1.000000,384.291534 1.000004,360.468658 
z"/>
<path fill="#000000" opacity="1.000000" stroke="none" 
	d="
M673.000000,189.531342 
	C665.826843,183.095230 659.356873,175.642242 653.674683,167.408386 
	C649.174622,160.887436 645.920044,153.672623 640.991577,147.322159 
	C636.906494,142.058456 636.439392,134.623978 635.178284,127.986656 
	C634.409363,123.940109 637.088440,120.347214 639.053894,116.930145 
	C640.299622,114.764473 642.548584,114.876236 644.819885,115.691719 
	C653.725647,118.889305 662.724792,121.686249 672.687866,121.076630 
	C673.000000,143.687561 673.000000,166.375122 673.000000,189.531342 
z"/>
<path fill="#000000" opacity="1.000000" stroke="none" 
	d="
M98.468658,641.000000 
	C100.970947,624.039246 107.504410,608.582153 116.841881,594.250549 
	C118.604889,595.114075 118.507935,596.021973 118.032486,596.687012 
	C112.820343,603.977722 118.291870,616.005493 123.819206,620.946106 
	C125.981972,622.879333 129.195358,623.014221 132.222046,621.436584 
	C136.795563,619.052673 140.774475,619.961365 142.390869,624.705200 
	C145.743408,634.544312 153.972244,637.585327 162.712708,640.824463 
	C141.645767,641.000000 120.291542,641.000000 98.468658,641.000000 
z"/>
<path fill="#000000" opacity="1.000000" stroke="none" 
	d="
M60.789417,489.740967 
	C64.686829,486.338379 68.970665,484.569702 73.688248,484.068115 
	C82.796829,483.099640 88.507774,489.092072 86.794495,498.107849 
	C85.406982,505.409393 82.594917,512.153687 76.398659,516.868958 
	C73.708038,518.916382 71.706429,521.496887 69.763573,524.224060 
	C64.486504,531.631531 56.834278,536.164307 48.927776,539.990295 
	C42.947941,542.883911 38.964581,539.672607 38.904369,532.962891 
	C38.858269,527.825256 40.815975,523.129150 42.539436,518.537476 
	C46.551617,507.847992 50.266724,496.803711 60.789417,489.740967 
z"/>
<path fill="#000000" opacity="1.000000" stroke="none" 
	d="
M302.540955,420.559082 
	C298.494720,418.084717 295.179382,415.299530 292.544098,411.806000 
	C288.454834,406.384888 288.670288,400.745667 292.967133,396.992523 
	C297.239594,393.260712 301.893158,393.933167 306.997711,399.020172 
	C323.700287,415.665314 351.476746,415.307343 367.849304,398.235962 
	C372.663788,393.215973 377.521088,392.511963 381.890594,396.200775 
	C386.068756,399.728088 386.478485,405.357605 382.628448,410.582275 
	C375.932892,419.668488 365.936218,423.540863 355.776306,426.964600 
	C337.190979,433.227539 319.677124,429.767670 302.540955,420.559082 
z"/>
<path fill="#000000" opacity="1.000000" stroke="none" 
	d="
M482.406799,333.613708 
	C457.636230,344.951630 424.617676,329.625122 424.043762,294.550629 
	C423.775940,278.182343 431.091431,265.422638 446.004028,258.207214 
	C461.230530,250.839905 476.171722,251.710602 490.339630,261.794617 
	C516.725525,280.574829 511.977905,319.921021 482.406799,333.613708 
M452.473694,283.848358 
	C453.079773,285.212616 453.515381,286.688293 454.321747,287.921600 
	C457.627563,292.977997 462.519653,294.433716 468.232666,293.614655 
	C472.603699,292.987976 477.416779,288.216797 478.465149,283.684784 
	C479.505371,279.187927 477.204224,273.552948 472.951721,270.600159 
	C468.909943,267.793701 464.505127,267.442078 460.186279,269.727997 
	C454.928925,272.510620 451.868774,276.795471 452.473694,283.848358 
z"/>
<path fill="#000000" opacity="1.000000" stroke="none" 
	d="
M178.659271,265.669922 
	C200.896896,245.068726 234.662613,251.116440 247.200882,278.049957 
	C254.347488,293.401611 252.769028,308.693451 241.638321,321.499939 
	C230.347214,334.490967 216.093292,340.383026 198.267639,335.573853 
	C163.023834,326.065460 160.359879,283.975739 178.659271,265.669922 
M220.782608,274.868103 
	C216.745743,269.184662 211.232513,266.951691 205.358704,268.621094 
	C200.960876,269.871002 196.758423,274.978516 196.353867,279.565277 
	C195.855545,285.215088 198.569321,290.412506 203.296249,292.861267 
	C208.236740,295.420654 213.603043,294.838898 217.679993,291.301941 
	C222.176376,287.401123 223.395996,281.807526 220.782608,274.868103 
z"/>
<path fill="#000000" opacity="1.000000" stroke="none" 
	d="
M547.150024,150.098648 
	C541.647217,148.538773 541.313599,148.042648 542.714539,143.657532 
	C545.513672,144.876434 547.118652,146.851013 547.150024,150.098648 
z"/>
</svg>